<?xml version="1.0" encoding="UTF-8"?>
<svg width="451mm" height="192mm" version="1.1" viewBox="0 0 451 192" xmlns="http://www.w3.org/2000/svg" xmlns:cc="http://creativecommons.org/ns#" xmlns:dc="http://purl.org/dc/elements/1.1/" xmlns:osb="http://www.openswatchbook.org/uri/2009/osb" xmlns:rdf="http://www.w3.org/1999/02/22-rdf-syntax-ns#">
<metadata>
<rdf:RDF>
<cc:Work rdf:about="">
<dc:format>image/svg+xml</dc:format>
<dc:type rdf:resource="http://purl.org/dc/dcmitype/StillImage"/>
<dc:title/>
</cc:Work>
</rdf:RDF>
</metadata>
<g transform="translate(0,-105)">
<path d="m204.05 142.59z" fill="none" stroke="#000" stroke-width=".30302px"/>
<flowRoot transform="translate(9.8392 1.1339)" fill="#000000" font-family="sans-serif" font-size="40px" letter-spacing="0px" word-spacing="0px" style="line-height:1.25" xml:space="preserve"><flowRegion><rect x="1367.7" y="38.766" width="127.28" height="402.04"/></flowRegion><flowPara/></flowRoot>
<flowRoot transform="translate(9.8392 1.1339)" fill="#000000" font-family="sans-serif" font-size="40px" letter-spacing="0px" word-spacing="0px" style="line-height:1.25" xml:space="preserve"><flowRegion><rect x="135.36" y="252.92" width="220.21" height="153.54"/></flowRegion><flowPara/></flowRoot>
<flowRoot transform="translate(9.8392 1.1339)" fill="#000000" font-family="sans-serif" font-size="40px" letter-spacing="0px" word-spacing="0px" style="line-height:1.25" xml:space="preserve"><flowRegion><rect x="103.43" y="207.28" width="547.59" height="122.9"/></flowRegion><flowPara/></flowRoot>
<text x="9.2680054" y="282.67194" fill="#000000" font-family="sans-serif" font-size="10.583px" letter-spacing="0px" stroke-width=".26458" word-spacing="0px" style="line-height:1.25" xml:space="preserve"><tspan x="9.2680054" y="292.03571" font-size="21.167px" stroke-width=".26458"/></text>
<text x="388.98544" y="280.35028" fill="#000000" font-family="sans-serif" font-size="10.583px" letter-spacing="0px" stroke-width=".26458" word-spacing="0px" style="line-height:1.25" xml:space="preserve"><tspan x="388.98544" y="280.35028" font-size="21.167px" stroke-width=".26458">2 ррп</tspan></text>
<path d="m91.038 283.4-81.979 0.0571 39.315-91.804z" fill="none" stroke="#e60000" stroke-width="5"/>
<path d="m48.374 191.65 1.4755-61.938" fill="none" stroke="#e60000" stroke-width="5"/>
<path d="m19.652 158.44h60.021" fill="none" stroke="#e60000" stroke-width="5"/>
<path d="m19.652 165.71h60.021" fill="none" stroke="#e60000" stroke-width="5"/>
<g transform="translate(208.73 -3.9731)" stroke="#000" stroke-width="5">
<path d="m65.117 168.51-6.0893 1.4532 4.1837 4.7573z"/>
<path d="m196.19 167.71-7.0339-0.1175 3.4982 5.7397z"/>
<path d="m133.13 186.82 30.484-15.823v16.239l27.424-16.488" fill="none"/>
<path d="m63.958 171.49 32.74 14.875 8.4564-15.266 28.28 15.5" fill="none"/>
<path d="m175.88 287.28-81.979 0.0571 39.315-91.804z" fill="none"/>
<path d="m133.22 195.54 1.4755-61.938" fill="none"/>
<path d="m104.49 162.32h60.021" fill="none"/>
</g>
<path d="m312.86 165.44h60.021" fill="none" stroke="#000" stroke-width="5"/>
<path d="m244.64 283.44-81.979 0.0571 39.315-91.804z" fill="none" stroke="#000" stroke-width="5"/>
<path d="m201.87 191.7 1.4755-61.938" fill="none" stroke="#000" stroke-width="5"/>
<path d="m173.15 158.48h60.021" fill="none" stroke="#000" stroke-width="5"/>
<path d="m173.15 165.75h60.021" fill="none" stroke="#000" stroke-width="5"/>
<flowRoot transform="matrix(.26458 0 0 .26458 9.4913 112.5)" fill="#000000" font-family="sans-serif" font-size="40px" letter-spacing="0px" word-spacing="0px" style="line-height:1.25" xml:space="preserve"><flowRegion><rect x="326.12" y="572.34" width="615.12" height="94.364"/></flowRegion><flowPara font-size="80px">2 мср</flowPara><flowPara/></flowRoot>
<flowRoot transform="matrix(.26458 0 0 .26458 0 105)" fill="#000000" font-family="sans-serif" font-size="40px" letter-spacing="0px" word-spacing="0px" style="line-height:1.25" xml:space="preserve"><flowRegion><rect x="250.67" y="623.45" width="170.36" height="102.22"/></flowRegion><flowPara/></flowRoot>
</g>
</svg>
