<?xml version="1.0" encoding="UTF-8"?>
<svg width="295mm" height="192mm" version="1.1" viewBox="0 0 295 192" xmlns="http://www.w3.org/2000/svg" xmlns:cc="http://creativecommons.org/ns#" xmlns:dc="http://purl.org/dc/elements/1.1/" xmlns:osb="http://www.openswatchbook.org/uri/2009/osb" xmlns:rdf="http://www.w3.org/1999/02/22-rdf-syntax-ns#">
<metadata>
<rdf:RDF>
<cc:Work rdf:about="">
<dc:format>image/svg+xml</dc:format>
<dc:type rdf:resource="http://purl.org/dc/dcmitype/StillImage"/>
<dc:title/>
</cc:Work>
</rdf:RDF>
</metadata>
<g transform="translate(0,-105)">
<path d="m116.76 142.59z" fill="none" stroke="#000" stroke-width=".30302px"/>
<flowRoot transform="translate(9.8392 1.1339)" fill="#000000" font-family="sans-serif" font-size="40px" letter-spacing="0px" word-spacing="0px" style="line-height:1.25" xml:space="preserve"><flowRegion><rect x="1367.7" y="38.766" width="127.28" height="402.04"/></flowRegion><flowPara/></flowRoot>
<flowRoot transform="translate(9.8392 1.1339)" fill="#000000" font-family="sans-serif" font-size="40px" letter-spacing="0px" word-spacing="0px" style="line-height:1.25" xml:space="preserve"><flowRegion><rect x="135.36" y="252.92" width="220.21" height="153.54"/></flowRegion><flowPara/></flowRoot>
<flowRoot transform="translate(9.8392 1.1339)" fill="#000000" font-family="sans-serif" font-size="40px" letter-spacing="0px" word-spacing="0px" style="line-height:1.25" xml:space="preserve"><flowRegion><rect x="103.43" y="207.28" width="547.59" height="122.9"/></flowRegion><flowPara/></flowRoot>
<path d="m162.98 288 0.14629-150.87 91.777 39.379-91.777 42.6" fill="none" stroke="#000" stroke-width="5"/>
<text x="9.2680054" y="282.67194" fill="#000000" font-family="sans-serif" font-size="10.583px" letter-spacing="0px" stroke-width=".26458" word-spacing="0px" style="line-height:1.25" xml:space="preserve"><tspan x="9.2680054" y="292.03571" font-size="21.167px" stroke-width=".26458"/></text>
<text x="219.52449" y="227.97098" fill="#000000" font-family="sans-serif" font-size="10.583px" letter-spacing="0px" stroke-width=".26458" word-spacing="0px" style="line-height:1.25" xml:space="preserve"><tspan x="219.52449" y="227.97098" font-size="21.167px" stroke-width=".26458">об РЭБ</tspan></text>
<g transform="matrix(.79147 0 0 1 57.533 50.541)" stroke="#000" stroke-width="5.6202">
<path d="m65.117 168.51-6.0893 1.4532 4.1837 4.7573z"/>
<path d="m196.19 167.71-7.0339-0.1175 3.4982 5.7397z"/>
<path d="m133.13 186.82 30.484-15.823v16.239l27.424-16.488" fill="none"/>
<path d="m63.958 171.49 32.74 14.875 8.4564-15.266 28.28 15.5" fill="none"/>
</g>
<path d="m4.5 288 0.14629-150.87 91.777 39.379-91.777 42.6" fill="none" stroke="#e60000" stroke-width="5"/>
<flowRoot transform="matrix(.26458 0 0 .26458 0 105)" fill="#000000" font-family="sans-serif" font-size="80px" letter-spacing="0px" word-spacing="0px" style="line-height:1.25" xml:space="preserve"><flowRegion font-size="80px"><rect x="64.534" y="587.14" width="327.83" height="98.952"/></flowRegion><flowPara/></flowRoot>
<text x="27.54711" y="267.63159" fill="#000000" font-family="sans-serif" font-size="21.167px" letter-spacing="0px" stroke-width=".26458" word-spacing="0px" style="line-height:1.25" xml:space="preserve"><tspan x="27.54711" y="286.35913" font-size="21.167px" stroke-width=".26458"/></text>
<text x="10.619905" y="285.22372" fill="#000000" font-family="sans-serif" font-size="21.167px" letter-spacing="0px" stroke-width=".26458" word-spacing="0px" style="line-height:1.25" xml:space="preserve"><tspan x="10.619905" y="285.22372" stroke-width=".26458">1/11 ОМБР</tspan></text>
</g>
</svg>
