<?xml version="1.0" encoding="UTF-8"?>
<svg width="405mm" height="192mm" version="1.1" viewBox="0 0 405 192" xmlns="http://www.w3.org/2000/svg" xmlns:cc="http://creativecommons.org/ns#" xmlns:dc="http://purl.org/dc/elements/1.1/" xmlns:osb="http://www.openswatchbook.org/uri/2009/osb" xmlns:rdf="http://www.w3.org/1999/02/22-rdf-syntax-ns#">
<metadata>
<rdf:RDF>
<cc:Work rdf:about="">
<dc:format>image/svg+xml</dc:format>
<dc:type rdf:resource="http://purl.org/dc/dcmitype/StillImage"/>
<dc:title/>
</cc:Work>
</rdf:RDF>
</metadata>
<g transform="translate(0,-105)">
<g transform="translate(9.8392 1.1339)">
<path d="m187.51 141.46z" fill="none" stroke="#000" stroke-width=".30302px"/>
<flowRoot fill="#000000" font-family="sans-serif" font-size="40px" letter-spacing="0px" word-spacing="0px" style="line-height:1.25" xml:space="preserve"><flowRegion><rect x="1367.7" y="38.766" width="127.28" height="402.04"/></flowRegion><flowPara/></flowRoot>
<flowRoot fill="#000000" font-family="sans-serif" font-size="40px" letter-spacing="0px" word-spacing="0px" style="line-height:1.25" xml:space="preserve"><flowRegion><rect x="135.36" y="252.92" width="220.21" height="153.54"/></flowRegion><flowPara/></flowRoot>
<path d="m-4.7069 282.51-0.11945-163.64 2.1033 9.0159c33.387-16.325 61.089-17.31 82.462-1.2155 0.6985 4.7513 0.09897 9.9594 5.3289 13.116 24.874-3.9155 31.613-0.90483 31.511 4.7188 3.642 13.003 6.3706 23.94 26.822 23.289 7.9937-17.578 36.245 45.467 54.368 68.2-4.4217-4.8242-9.0349-9.092-14.514-10.845-11.005-2.5488-20.097 7.0241-30.125 10.673-14.761 0.45342-21.655-5.2323-30.699-9.2401-9.313-0.70212-18.402 4.7341-27.451 11.278-17.689 0.56223-30.733-6.9531-44.016-14.053-21.292-4.5109-38.212 5.8207-55.953 13.362" fill="none" stroke="#e60000" stroke-width="5.444"/>
<path d="m220.84 282.58-0.0922-163.47 1.6223 9.0062c25.752-16.307 47.12-17.291 63.605-1.2142 0.53884 4.7462 0.0763 9.9488 4.1103 13.102 19.186-3.9113 24.384-0.90386 24.305 4.7137 2.8091 12.989 4.9138 23.915 20.689 23.264 6.1658-17.56 27.957 45.418 41.935 68.127-3.4105-4.8191-6.9689-9.0824-11.195-10.834-8.4888-2.5461-15.502 7.0166-23.236 10.661-11.385 0.45292-16.703-5.2267-23.679-9.2303-7.1834-0.70135-14.194 4.7291-21.174 11.266-13.644 0.56169-23.705-6.9456-33.95-14.038-16.424-4.5061-29.474 5.8145-43.158 13.347" fill="none" stroke="#e60000" stroke-width="5.7277"/>
<text x="2.5834472" y="195.56635" fill="#000000" font-family="sans-serif" font-size="21.167px" letter-spacing="0px" stroke-width=".26458" word-spacing="0px" style="line-height:1.25" xml:space="preserve"><tspan x="2.5834472" y="195.56635" font-size="21.167px" stroke-width=".26458">ВВС и ПВО</tspan></text>
<text x="8.0834475" y="270.07553" fill="#000000" font-family="sans-serif" font-size="21.167px" letter-spacing="0px" stroke-width=".26458" word-spacing="0px" style="line-height:1.25" xml:space="preserve"><tspan x="8.0834475" y="270.07553" font-size="21.167px" stroke-width=".26458">КП (ЗКП, ТПУ)</tspan></text>
<text x="232.42882" y="270.07553" fill="#000000" font-family="sans-serif" font-size="21.167px" letter-spacing="0px" stroke-width=".26458" word-spacing="0px" style="line-height:1.25" xml:space="preserve"><tspan x="232.42882" y="270.07553" font-size="21.167px" stroke-width=".26458">КП (ЗКП, ТПУ)</tspan></text>
<text x="248.66328" y="195.56635" fill="#000000" font-family="sans-serif" font-size="21.167px" letter-spacing="0px" stroke-width=".26458" word-spacing="0px" style="line-height:1.25" xml:space="preserve"><tspan x="248.66328" y="195.56635" font-size="21.167px" stroke-width=".26458">ССО</tspan></text>
</g>
</g>
</svg>
